<svg id="Capa_1" enable-background="new 0 0 512 512" height="512" viewBox="0 0 512 512" width="512" xmlns="http://www.w3.org/2000/svg"><g><g><path d="m235.034 102.353c0-4.142-3.357-7.5-7.5-7.5h-82.979c-4.143 0-7.5 3.358-7.5 7.5s3.357 7.5 7.5 7.5h82.979c4.143 0 7.5-3.358 7.5-7.5z"/><path d="m227.534 54.904h-82.979c-4.143 0-7.5 3.358-7.5 7.5s3.357 7.5 7.5 7.5h82.979c4.143 0 7.5-3.358 7.5-7.5s-3.357-7.5-7.5-7.5z"/><path d="m474.809 443.318c4.143 0 7.5-3.358 7.5-7.5v-321.389c0-9.911-3.859-19.229-10.867-26.238l-77.323-77.323c-7.009-7.008-16.327-10.868-26.239-10.868h-249.551c-23.155 0-41.993 18.838-41.993 41.994v107.198h-13.821c-18.099 0-32.823 14.725-32.823 32.824v242.374c0 20.104 16.355 36.46 36.46 36.46h10.185v9.226c0 23.117 18.808 41.925 41.925 41.925h326.941c20.461 0 37.106-16.646 37.106-37.106v-3.968c0-4.142-3.357-7.5-7.5-7.5s-7.5 3.358-7.5 7.5v3.968c0 12.189-9.917 22.106-22.106 22.106h-326.942c-14.847 0-26.925-12.079-26.925-26.925v-9.226h218.01c20.104 0 36.46-16.356 36.46-36.46v-188.09c0-20.104-16.355-36.46-36.46-36.46h-145.85c-4.143 0-7.5 3.358-7.5 7.5s3.357 7.5 7.5 7.5h145.85c11.833 0 21.46 9.627 21.46 21.46v188.089c0 11.833-9.627 21.46-21.46 21.46h-243.195c-11.833 0-21.46-9.627-21.46-21.46v-214.822c5.136 3.334 11.258 5.272 17.824 5.272h65.146c4.143 0 7.5-3.358 7.5-7.5s-3.357-7.5-7.5-7.5h-36.325v-157.845c0-14.885 12.109-26.994 26.993-26.994h249.551c1.622 0 3.217.174 4.764.512v68.299c0 14.256 11.599 25.854 25.854 25.854h68.299c.338 1.547.512 3.142.512 4.764v321.389c0 4.142 3.357 7.5 7.5 7.5zm-412.293-243.479c-9.828 0-17.824-7.996-17.824-17.824s7.995-17.824 17.823-17.824h13.821v35.648zm325.128-116.028v-58.204l69.059 69.058h-58.204c-5.986.001-10.855-4.869-10.855-10.854z"/><path d="m102.541 292.994v74.66c0 6.71 3.61 12.964 9.423 16.321l64.657 37.33c5.811 3.357 13.033 3.357 18.847 0l64.658-37.331c5.812-3.356 9.422-9.61 9.422-16.32v-74.66c0-6.709-3.612-12.965-9.423-16.321l-64.657-37.33c-5.812-3.356-13.034-3.357-18.846 0l-64.659 37.33c-5.809 3.356-9.422 9.611-9.422 16.321zm16.924 77.991c-1.187-.686-1.924-1.962-1.924-3.331v-68.221l61.004 35.221v70.441zm133.16 0-59.08 34.11v-70.441l61.003-35.22v68.22c0 1.369-.737 2.646-1.923 3.331zm-68.502-118.652c1.186-.685 2.659-.684 3.845 0l59.08 34.11-61.003 35.22-61.004-35.22z"/></g></g></svg>