<svg xmlns="http://www.w3.org/2000/svg" width="14" height="18.379" viewBox="0 0 14 18.379">
  <g id="google-forms" transform="translate(-61)">
    <path id="Path_27" data-name="Path 27" d="M74.842,4.465,70.535.158A.542.542,0,0,0,70.154,0H62.615A1.617,1.617,0,0,0,61,1.615V16.764a1.617,1.617,0,0,0,1.615,1.615H73.385A1.617,1.617,0,0,0,75,16.764V4.846A.544.544,0,0,0,74.842,4.465Zm-4.15-2.627,2.469,2.469H71.231a.539.539,0,0,1-.538-.538ZM73.385,17.3H62.615a.539.539,0,0,1-.538-.538V1.615a.539.539,0,0,1,.538-.538h7V3.769a1.617,1.617,0,0,0,1.615,1.615h2.692V16.764A.539.539,0,0,1,73.385,17.3Z" fill="#fff"/>
    <g id="Group_36" data-name="Group 36">
      <path id="Path_28" data-name="Path 28" d="M187.318,242h-5.744a.574.574,0,1,0,0,1.149h5.744a.574.574,0,0,0,0-1.149Z" transform="translate(-115.938 -233.395)" fill="#fff"/>
      <circle id="Ellipse_1" data-name="Ellipse 1" cx="0.5" cy="0.5" r="0.5" transform="translate(63.351 8.605)" fill="#fff"/>
    </g>
    <g id="Group_35" data-name="Group 35">
      <path id="Path_29" data-name="Path 29" d="M187.318,302h-5.744a.574.574,0,1,0,0,1.149h5.744a.574.574,0,1,0,0-1.149Z" transform="translate(-115.938 -291.395)" fill="#fff"/>
      <circle id="Ellipse_2" data-name="Ellipse 2" cx="0.5" cy="0.5" r="0.5" transform="translate(63.351 10.605)" fill="#fff"/>
    </g>
    <g id="Group_37" data-name="Group 37">
      <path id="Path_30" data-name="Path 30" d="M187.318,362h-5.744a.574.574,0,1,0,0,1.149h5.744a.574.574,0,1,0,0-1.149Z" transform="translate(-115.938 -349.395)" fill="#fff"/>
      <circle id="Ellipse_3" data-name="Ellipse 3" cx="0.5" cy="0.5" r="0.5" transform="translate(63.351 12.605)" fill="#fff"/>
    </g>
  </g>
</svg>
