<svg xmlns="http://www.w3.org/2000/svg" width="73.413" height="75.12" viewBox="0 0 73.413 75.12">
  <g id="Group_3201" data-name="Group 3201" transform="translate(-734.14 -252.425)">
    <path id="Path_3772" data-name="Path 3772" d="M479.052-91.678a36.461,36.461,0,0,1-49.549-14.27,36.461,36.461,0,0,1,14.27-49.549,36.461,36.461,0,0,1,49.549,14.27" transform="translate(310.288 413.573)" fill="none" stroke="#157af6" stroke-linecap="round" stroke-linejoin="round" stroke-width="2" stroke-dasharray="3 6 3 6 3 6"/>
    <g id="Group_3200" data-name="Group 3200" transform="translate(745.57 266.647)">
      <path id="Path_3773" data-name="Path 3773" d="M641.715-29.465a11.949,11.949,0,0,1-.094-9.454c-.613-.221-.542-.608-.3-1.082a6.5,6.5,0,0,1,5.141-3.789c1.22-.17,2.426-.5,3.649-.568A11.626,11.626,0,0,1,657.8-42.14a8.606,8.606,0,0,1,3.454,9.005c-.2,1.158-.533,2.294-.772,3.446a1.261,1.261,0,0,0,.155.612A4.329,4.329,0,0,1,661.056-28a7.034,7.034,0,0,1-.13,1.695c-.153.879-.375,1.745-.549,2.621A1.531,1.531,0,0,1,659.5-22.5a.828.828,0,0,0-.376.485,8.452,8.452,0,0,1-1.765,3.352,1.363,1.363,0,0,0-.263.706c-.043.376.033.766-.02,1.139a3.628,3.628,0,0,0,.8,2.652,1.3,1.3,0,0,0,.533.378c2.321,1.038,4.833,1.289,7.291,1.766.858.167,1.722.321,2.561.56a5.277,5.277,0,0,1,3.814,3.74C673.144-4.15,674.183-.573,675.233,3c.263.9.189,1-.737,1l-34.067.019q-5.963,0-11.926.012c-.847,0-.94-.122-.71-.934C628.78-.4,629.76-3.9,630.76-7.385a5.343,5.343,0,0,1,4.049-3.932c2.118-.535,4.267-.954,6.379-1.51A14.186,14.186,0,0,0,644.268-14a2.092,2.092,0,0,0,.834-1.387,16.86,16.86,0,0,0,.075-2.787.873.873,0,0,0-.255-.483A8.129,8.129,0,0,1,643.153-22a.942.942,0,0,0-.429-.514,1.475,1.475,0,0,1-.8-1.043c-.2-.967-.433-1.929-.611-2.9a4.994,4.994,0,0,1-.1-1.468A8.653,8.653,0,0,1,641.715-29.465Zm.3,1.033a8.854,8.854,0,0,0,.013,1.456c.193,1.1.434,2.2.7,3.286a.76.76,0,0,0,.49.468c.439.079.564.307.657.713a5.74,5.74,0,0,0,3.2,4.365c.727.325,1.4.765,2.109,1.132a4.363,4.363,0,0,0,4.5-.121c.668-.4,1.311-.846,1.994-1.219a3.97,3.97,0,0,0,1.675-1.663,21.417,21.417,0,0,0,1.06-2.622.768.768,0,0,1,.531-.568,1.078,1.078,0,0,0,.618-.61c.266-.989.484-1.995.65-3.006a9.61,9.61,0,0,0,.014-1.541.626.626,0,0,0-.288.268c-.178.211-.37.41-.556.614a3.736,3.736,0,0,1-.4-.731c-.341-1.182-.6-2.391-1-3.553-.147-.429-.6-.749-.9-1.131-.158-.2-.383-.426-.4-.656a3.668,3.668,0,0,0-4.076-3.468c-2.557.212-5.11.478-7.667.693a.7.7,0,0,0-.747.694c-.369,2.192-.773,4.379-1.164,6.567C642.9-28.355,642.831-28.3,642.011-28.432ZM660.3-9.508c.485.338.815.6,1.173.809a.677.677,0,0,1,.3.954c-1.221,3.437-2.422,6.881-3.629,10.322-.066.187-.125.376-.2.591h16.491c-.07-.253-.123-.45-.181-.646C673.3-.74,672.334-4,671.385-7.265a4.647,4.647,0,0,0-3.666-3.513c-2.155-.461-4.327-.837-6.493-1.246a.849.849,0,0,0-.252.051C661.359-11,661.691-10.052,660.3-9.508ZM628.6,3.182h15.71l-.246-.7C642.878-.909,641.7-4.3,640.5-7.679a.705.705,0,0,1,.341-.992c.354-.206.675-.469.972-.679-.325-.42-.779-.762-.858-1.176a3.814,3.814,0,0,1,.334-1.438,3.029,3.029,0,0,0-.3.03c-2.054.474-4.12.9-6.157,1.441a4.514,4.514,0,0,0-3.3,3.319c-.576,1.988-1.132,3.982-1.694,5.975C629.427.24,629.024,1.681,628.6,3.182ZM642.4-30.286c.034-.142.076-.283.1-.427.345-1.907.693-3.814,1.029-5.723.063-.358.183-.577.6-.613,2.859-.251,5.714-.558,8.576-.776a4.4,4.4,0,0,1,4.75,3.83.815.815,0,0,0,.227.487,4.3,4.3,0,0,1,1.348,2.074c.2.537.348,1.091.519,1.637l.16.013c.263-1.236.582-2.463.78-3.709a7.738,7.738,0,0,0-3.2-8.011,11.125,11.125,0,0,0-7.952-1.984,32.489,32.489,0,0,0-3.411.626,5.414,5.414,0,0,0-3.436,2.447c.555.407.552.412.236,1.064A10.8,10.8,0,0,0,642.4-30.286ZM653.277-9.412a4.231,4.231,0,0,0-.456,2.955,11.093,11.093,0,0,1,.354,3.891c-.124,1.742-.155,3.491-.222,5.237-.006.162.015.325.027.537.75,0,1.451.02,2.149-.018.131-.007.32-.233.36-.389.2-.79.375-1.589.546-2.387a38.291,38.291,0,0,0,.9-4.4c.209-2.247.2-4.514.283-6.773a3.522,3.522,0,0,0-.063-.468c-.465,1.1-.867,2.06-1.281,3.017-.249.578-.44.619-.926.213C654.394-8.46,653.849-8.927,653.277-9.412Zm-8.154-1.775c0,.9.017,1.642,0,2.379A43.154,43.154,0,0,0,646.759,2.77c.041.167.206.425.325.432.733.04,1.469.02,2.088.02,0-1.337.034-2.589-.008-3.838a18.373,18.373,0,0,1,.3-6.109c.3-.979-.175-1.758-.47-2.683-.6.5-1.127.953-1.662,1.4-.508.423-.688.377-.956-.243C645.977-9.186,645.579-10.122,645.123-11.187Zm.913,14.351c-.251-1.134-.5-2.243-.739-3.355a30.491,30.491,0,0,1-.73-3.741c-.18-2.216-.193-4.445-.28-6.668-.031-.793-.073-1.586-.113-2.464-.639.249-1.223.462-1.793.71-.112.049-.184.223-.243.354-.4.882-.505,1.674.542,2.232.408.217.337.548-.036.8-.467.322-.931.649-1.4.976.036.131.055.223.086.311,1.211,3.44,2.435,6.876,3.622,10.325C645.146,3.206,645.429,3.363,646.036,3.164Zm12.046-16.227c-.108,2.828-.064,5.559-.357,8.253s-.919,5.326-1.4,7.995c.519.172.8-.014.984-.559,1.061-3.07,2.164-6.126,3.236-9.193.51-1.46.493-1.466-.755-2.342-.611-.429-.663-.646-.038-1.04a1.223,1.223,0,0,0,.523-1.751,3.06,3.06,0,0,0-.115-.38.827.827,0,0,0-.325-.343C659.291-12.644,658.733-12.83,658.082-13.064ZM656.3-17.8c-.759.467-1.416.872-2.074,1.275a5.228,5.228,0,0,1-5.52.151c-.739-.393-1.47-.8-2.207-1.194-.141-.076-.293-.132-.515-.23,0,.714-.018,1.34.013,1.964a.659.659,0,0,0,.276.439q2.285,1.508,4.6,2.975a.616.616,0,0,0,.541,0c1.542-.976,3.072-1.972,4.6-2.974a.609.609,0,0,0,.279-.378C656.314-16.406,656.3-17.044,656.3-17.8ZM652.171,3.173c-.11-3.486.758-6.956-.335-10.389h-1.467a16.832,16.832,0,0,0-.507,4.432c.157,1.968.178,3.947.259,5.957ZM647.019-8.765l3.472-2.947-5.245-3.4c-.142.522-.42.981-.337,1.363a10.755,10.755,0,0,0,.78,1.89C646.123-10.85,646.555-9.843,647.019-8.765ZM656.54-14.8l-4.759,3.087,3.472,2.943c.558-1.316,1.023-2.6,1.644-3.81A1.757,1.757,0,0,0,656.54-14.8Zm-5.363,3.607c-1.568.984-1.606,1.09-1,2.717.02.053.024.124.062.157.115.1.236.25.367.264a2.549,2.549,0,0,0,1.072-.008c.652-.236.5-.974.745-1.47a.7.7,0,0,0-.059-.633A13.977,13.977,0,0,0,651.176-11.189Z" transform="translate(-613.382 44.378)" fill="#157af6"/>
    </g>
    <path id="invitation" d="M18.717,5.2,13.24,1.024a4.844,4.844,0,0,0-5.861,0L1.9,5.2A4.86,4.86,0,0,0,0,9.043V15.82a4.838,4.838,0,0,0,4.832,4.832H15.786a4.838,4.838,0,0,0,4.832-4.832V9.043a4.86,4.86,0,0,0-1.9-3.842Zm.291,10.619a3.225,3.225,0,0,1-3.222,3.222H4.833A3.225,3.225,0,0,1,1.611,15.82V9.043A3.24,3.24,0,0,1,2.879,6.482L8.356,2.3a3.229,3.229,0,0,1,3.908,0L17.74,6.482a3.24,3.24,0,0,1,1.268,2.562ZM17.272,9.935a.805.805,0,0,1-.152,1.129l-3.88,2.96a4.844,4.844,0,0,1-5.861,0L3.539,11.1a.805.805,0,1,1,.977-1.281l3.84,2.929a3.229,3.229,0,0,0,3.908,0l3.88-2.96a.805.805,0,0,1,1.129.152ZM7.088,7.806A.805.805,0,0,1,7.893,7H9.5V5.39a.805.805,0,0,1,1.611,0V7h1.611a.805.805,0,0,1,0,1.611H11.115v1.611a.805.805,0,0,1-1.611,0V8.611H7.893A.805.805,0,0,1,7.088,7.806Z" transform="translate(746.233 268.964)" fill="#157af6"/>
  </g>
</svg>
