<svg xmlns="http://www.w3.org/2000/svg" viewBox="0 0 27 26" width="27" height="26">
	<style>
		tspan { white-space:pre }
		.shp0 { fill: #ffffff } 
		.shp1 { fill: #b9d4f8 } 
		.shp2 { fill: #659bdb } 
		.shp3 { fill: none;stroke: #1b4a9a;stroke-linecap:round;stroke-linejoin:round;stroke-width: 0.7 } 
	</style>
	<g id="Padding__x26__Artboard">
	</g>
	<g id="Icons">
		<g id="Layer">
			<path id="Layer" class="shp0" d="M14 15.25C9.98 15.25 6.74 12 6.74 7.98C6.74 3.97 9.98 0.72 14 0.72C18.02 0.72 21.26 3.97 21.26 7.98C21.26 12 18.02 15.25 14 15.25Z" />
			<path id="Layer" class="shp1" d="M13.46 15.25C9.74 15.25 6.74 12.24 6.74 8.52C6.74 4.8 9.74 1.8 13.46 1.8C17.18 1.8 20.18 4.8 20.18 8.52C20.18 12.24 17.18 15.25 13.46 15.25Z" />
			<path id="Layer" class="shp2" d="M14 13.96C10.69 13.96 8.02 11.29 8.02 7.98C8.02 4.68 10.69 2.01 14 2.01C17.31 2.01 19.98 4.68 19.98 7.98C19.98 11.29 17.31 13.96 14 13.96Z" />
			<path id="Layer" class="shp0" d="M26.46 24.95C26.46 21.06 23.28 17.87 19.39 17.87L8.61 17.87C4.72 17.87 1.54 21.06 1.54 24.95L1.54 25.28L26.46 25.28L26.46 24.95Z" />
			<path id="Layer" class="shp1" d="M24.02 24.95C24.02 21.17 21.15 18.07 17.64 18.07L7.92 18.07C4.41 18.07 1.54 21.17 1.54 24.95L1.54 25.28L24.02 25.28L24.02 24.95Z" />
			<path id="Layer" class="shp2" d="M20.77 24.99C20.77 21.62 16.97 18.05 13.97 18.05L6.75 18.13C3.74 18.13 1.54 21.62 1.54 24.99L1.54 25.28L20.77 25.28L20.77 24.99Z" />
			<path id="Layer" class="shp3" d="M14 15.25C9.98 15.25 6.74 12 6.74 7.98C6.74 3.97 9.98 0.72 14 0.72C18.02 0.72 21.26 3.97 21.26 7.98C21.26 12 18.02 15.25 14 15.25Z" />
			<path id="Layer" class="shp3" d="M9.12 6.07C9.61 3.64 11.97 2.07 14.4 2.55" />
			<path id="Layer" class="shp3" d="M1.54 24.95C1.54 21.06 4.72 17.87 8.61 17.87L19.39 17.87C23.28 17.87 26.46 21.06 26.46 24.95L1.54 24.95Z" />
			<path id="Layer" class="shp3" d="M8.98 7.52C8.98 7.52 8.87 8.51 8.98 8.97" />
		</g>
	</g>
</svg>