<svg xmlns="http://www.w3.org/2000/svg" width="14" height="15.837" viewBox="0 0 14 15.837">
  <g id="_3d-file" data-name="3d-file" transform="translate(-29.692)">
    <g id="Group_30" data-name="Group 30" transform="translate(29.692 0)">
      <path id="Path_21" data-name="Path 21" d="M140.443,95.112a.259.259,0,0,0-.259-.259h-2.87a.259.259,0,1,0,0,.519h2.87A.259.259,0,0,0,140.443,95.112Z" transform="translate(-133.842 -91.93)" fill="#fff"/>
      <path id="Path_22" data-name="Path 22" d="M140.184,54.9h-2.87a.259.259,0,1,0,0,.519h2.87a.259.259,0,0,0,0-.519Z" transform="translate(-133.842 -53.005)" fill="#fff"/>
      <path id="Path_23" data-name="Path 23" d="M43.46,13.712a.232.232,0,0,0,.232-.232V3.539a1.14,1.14,0,0,0-.336-.812L40.964.336A1.14,1.14,0,0,0,40.153,0H32.434a1.3,1.3,0,0,0-1.3,1.3V4.615h-.428A1.016,1.016,0,0,0,29.692,5.63v7.5a1.129,1.129,0,0,0,1.128,1.128h.315v.285a1.3,1.3,0,0,0,1.3,1.3H42.544a1.149,1.149,0,0,0,1.148-1.148v-.123a.232.232,0,1,0-.464,0v.123a.685.685,0,0,1-.684.684H32.432a.834.834,0,0,1-.833-.833v-.285h6.743a1.129,1.129,0,0,0,1.128-1.128V7.309a1.129,1.129,0,0,0-1.128-1.128H33.831a.232.232,0,1,0,0,.464h4.511a.665.665,0,0,1,.664.664v5.818a.665.665,0,0,1-.664.664H30.82a.665.665,0,0,1-.664-.664V6.482a1.009,1.009,0,0,0,.551.163h2.015a.232.232,0,0,0,0-.464H31.6V1.3a.836.836,0,0,1,.835-.835h7.719A.69.69,0,0,1,40.3.48V2.592a.8.8,0,0,0,.8.8h2.113a.69.69,0,0,1,.016.147V13.48a.232.232,0,0,0,.232.232ZM30.707,6.181a.551.551,0,0,1,0-1.1h.428v1.1ZM40.764,2.592V.792L42.9,2.928H41.1A.336.336,0,0,1,40.764,2.592Z" transform="translate(-29.692 0)" fill="#fff"/>
      <path id="Path_24" data-name="Path 24" d="M102.541,238.768v2.582a.654.654,0,0,0,.326.564l2.236,1.291a.653.653,0,0,0,.652,0l2.236-1.291a.654.654,0,0,0,.326-.564v-2.582a.654.654,0,0,0-.326-.564l-2.236-1.291a.653.653,0,0,0-.652,0l-2.236,1.291A.654.654,0,0,0,102.541,238.768Zm.585,2.7a.133.133,0,0,1-.067-.115v-2.359l2.11,1.218v2.436Zm4.605,0-2.043,1.18v-2.436l2.11-1.218v2.359A.133.133,0,0,1,107.731,241.465Zm-2.369-4.1a.133.133,0,0,1,.133,0l2.043,1.18-2.11,1.218-2.11-1.218Z" transform="translate(-100.443 -229.998)" fill="#fff"/>
    </g>
  </g>
</svg>
