<svg xmlns="http://www.w3.org/2000/svg" width="34" height="34" viewBox="0 0 34 34">
  <g id="Group_3338" data-name="Group 3338" transform="translate(-1199 -239)">
    <g id="Rectangle_92" data-name="Rectangle 92" transform="translate(1199 239)" fill="#2d3035" stroke="#5cb65f" stroke-width="1">
      <rect width="34" height="34" rx="2" stroke="none"/>
      <rect x="0.5" y="0.5" width="33" height="33" rx="1.5" fill="none"/>
    </g>
    <g id="add-user" transform="translate(1208 249)">
      <g id="Group_32" data-name="Group 32" transform="translate(0)">
        <g id="Group_31" data-name="Group 31" transform="translate(0)">
          <path id="Path_25" data-name="Path 25" d="M9.4,6.695a3.693,3.693,0,0,0,1.519-2.976,3.79,3.79,0,0,0-7.578,0A3.694,3.694,0,0,0,4.866,6.7a7.282,7.282,0,0,0-2.335,1.26A7.114,7.114,0,0,0,.037,12a1.638,1.638,0,0,0,.344,1.392A1.7,1.7,0,0,0,1.691,14H8.553a.547.547,0,1,0,0-1.094H1.691a.57.57,0,0,1-.446-.208.563.563,0,0,1-.118-.479A6.127,6.127,0,0,1,6.985,7.435l.148,0,.149,0A3.3,3.3,0,0,0,9.4,6.695ZM7.268,6.34H7a2.65,2.65,0,0,1-2.54-2.622,2.675,2.675,0,0,1,5.349,0A2.65,2.65,0,0,1,7.268,6.34Z" transform="translate(0)" fill="#5cb65f"/>
        </g>
      </g>
      <g id="Group_34" data-name="Group 34" transform="translate(9.126 9.125)">
        <g id="Group_33" data-name="Group 33">
          <line id="Line_15" data-name="Line 15" x2="5.029" transform="translate(1 -0.035)" fill="none" stroke="#5cb65f" stroke-linecap="round" stroke-width="1"/>
          <line id="Line_16" data-name="Line 16" x2="5.029" transform="translate(1 1.977)" fill="none" stroke="#5cb65f" stroke-linecap="round" stroke-width="1"/>
          <line id="Line_17" data-name="Line 17" x2="5.029" transform="translate(1 3.989)" fill="none" stroke="#5cb65f" stroke-linecap="round" stroke-width="1"/>
        </g>
      </g>
    </g>
  </g>
</svg>
