<svg id="analytics" xmlns="http://www.w3.org/2000/svg" width="14" height="14" viewBox="0 0 14 14">
  <g id="Group_7" data-name="Group 7" transform="translate(0 13.437)">
    <g id="Group_6" data-name="Group 6">
      <path id="Path_9" data-name="Path 9" d="M13.708,490.667H.292a.281.281,0,1,0,0,.563H13.708a.281.281,0,1,0,0-.563Z" transform="translate(0 -490.667)" fill="#fff"/>
    </g>
  </g>
  <g id="Group_9" data-name="Group 9" transform="translate(0.563 10.062)">
    <g id="Group_8" data-name="Group 8">
      <path id="Path_10" data-name="Path 10" d="M23.3,362.667H21.614a.281.281,0,0,0-.281.281v3.375a.281.281,0,0,0,.281.281H23.3a.281.281,0,0,0,.281-.281v-3.375A.281.281,0,0,0,23.3,362.667Zm-.281,3.375H21.9V363.23h1.125v2.813Z" transform="translate(-21.333 -362.667)" fill="#fff"/>
    </g>
  </g>
  <g id="Group_11" data-name="Group 11" transform="translate(4.112 7.249)">
    <g id="Group_10" data-name="Group 10">
      <path id="Path_11" data-name="Path 11" d="M151.3,256h-1.688a.281.281,0,0,0-.281.281v6.188a.281.281,0,0,0,.281.281H151.3a.281.281,0,0,0,.281-.281v-6.188A.281.281,0,0,0,151.3,256Zm-.281,6.188H149.9v-5.625h1.125Z" transform="translate(-149.333 -256)" fill="#fff"/>
    </g>
  </g>
  <g id="Group_13" data-name="Group 13" transform="translate(7.637 8.375)">
    <g id="Group_12" data-name="Group 12">
      <path id="Path_12" data-name="Path 12" d="M279.3,298.667h-1.688a.281.281,0,0,0-.281.281v5.063a.281.281,0,0,0,.281.281H279.3a.281.281,0,0,0,.281-.281v-5.063A.281.281,0,0,0,279.3,298.667Zm-.281,5.063H277.9v-4.5h1.125Z" transform="translate(-277.333 -298.667)" fill="#fff"/>
    </g>
  </g>
  <g id="Group_15" data-name="Group 15" transform="translate(11.187 4.999)">
    <g id="Group_14" data-name="Group 14">
      <path id="Path_13" data-name="Path 13" d="M407.3,170.667h-1.688a.281.281,0,0,0-.281.281v8.438a.281.281,0,0,0,.281.281H407.3a.281.281,0,0,0,.281-.281v-8.438A.281.281,0,0,0,407.3,170.667Zm-.281,8.438H405.9V171.23h1.125Z" transform="translate(-405.333 -170.667)" fill="#fff"/>
    </g>
  </g>
  <g id="Group_17" data-name="Group 17" transform="translate(0.563 5.287)">
    <g id="Group_16" data-name="Group 16">
      <path id="Path_14" data-name="Path 14" d="M22.458,192a1.125,1.125,0,1,0,1.125,1.125A1.126,1.126,0,0,0,22.458,192Zm0,1.688a.563.563,0,1,1,.563-.563A.563.563,0,0,1,22.458,193.688Z" transform="translate(-21.333 -192)" fill="#fff"/>
    </g>
  </g>
  <g id="Group_19" data-name="Group 19" transform="translate(4.112 2.35)">
    <g id="Group_18" data-name="Group 18">
      <path id="Path_15" data-name="Path 15" d="M150.458,85.333a1.125,1.125,0,1,0,1.125,1.125A1.126,1.126,0,0,0,150.458,85.333Zm0,1.688a.563.563,0,1,1,.563-.563A.563.563,0,0,1,150.458,87.021Z" transform="translate(-149.333 -85.333)" fill="#fff"/>
    </g>
  </g>
  <g id="Group_21" data-name="Group 21" transform="translate(7.637 3.525)">
    <g id="Group_20" data-name="Group 20">
      <path id="Path_16" data-name="Path 16" d="M278.458,128a1.125,1.125,0,1,0,1.125,1.125A1.126,1.126,0,0,0,278.458,128Zm0,1.688a.563.563,0,1,1,.563-.563A.563.563,0,0,1,278.458,129.688Z" transform="translate(-277.333 -128)" fill="#fff"/>
    </g>
  </g>
  <g id="Group_23" data-name="Group 23" transform="translate(11.187)">
    <g id="Group_22" data-name="Group 22">
      <path id="Path_17" data-name="Path 17" d="M406.458,0a1.125,1.125,0,1,0,1.125,1.125A1.126,1.126,0,0,0,406.458,0Zm0,1.688a.563.563,0,1,1,.563-.563A.563.563,0,0,1,406.458,1.688Z" transform="translate(-405.333)" fill="#fff"/>
    </g>
  </g>
  <g id="Group_25" data-name="Group 25" transform="translate(9.253 1.44)">
    <g id="Group_24" data-name="Group 24">
      <path id="Path_18" data-name="Path 18" d="M334.626,54.69a.281.281,0,0,0-.4,0l-2.183,2.183a.281.281,0,0,0,.4.4l2.183-2.183A.282.282,0,0,0,334.626,54.69Z" transform="translate(-331.963 -54.608)" fill="#fff"/>
    </g>
  </g>
  <g id="Group_27" data-name="Group 27" transform="translate(5.844 3.458)">
    <g id="Group_26" data-name="Group 26">
      <path id="Path_19" data-name="Path 19" d="M214.273,126.6l-1.807-.515a.281.281,0,0,0-.154.541l1.807.515a.281.281,0,0,0,.154-.541Z" transform="translate(-212.108 -126.078)" fill="#fff"/>
    </g>
  </g>
  <g id="Group_29" data-name="Group 29" transform="translate(2.002 3.78)">
    <g id="Group_28" data-name="Group 28">
      <path id="Path_20" data-name="Path 20" d="M78.556,137.379a.281.281,0,0,0-.395-.045l-2.121,1.691a.281.281,0,0,0,.176.5.284.284,0,0,0,.175-.061l2.121-1.691A.281.281,0,0,0,78.556,137.379Z" transform="translate(-75.935 -137.273)" fill="#fff"/>
    </g>
  </g>
</svg>
