<svg xmlns="http://www.w3.org/2000/svg" width="15.999" height="16" viewBox="0 0 18.999 19">
  <g id="exclamation-mark-inside-a-circle" transform="translate(-0.001)">
    <g id="c129_exclamation" transform="translate(0.001)">
      <path id="Path_34859" data-name="Path 34859" d="M9.5,0A9.5,9.5,0,1,0,19,9.5,9.5,9.5,0,0,0,9.5,0Zm0,18.027A8.528,8.528,0,1,1,18.028,9.5,8.527,8.527,0,0,1,9.5,18.027Z" transform="translate(-0.001)" fill="#c40101"/>
      <path id="Path_34860" data-name="Path 34860" d="M14.369,13.126l.416-8.547H11.8l.414,8.547Z" transform="translate(-3.784 -1.468)" fill="#c40101"/>
      <path id="Path_34861" data-name="Path 34861" d="M13.2,18.546a1.718,1.718,0,0,0-.038,3.434H13.2a1.717,1.717,0,0,0,0-3.434Z" transform="translate(-3.686 -5.945)" fill="#c40101"/>
    </g>
  </g>
</svg>
