<svg xmlns="http://www.w3.org/2000/svg" width="14" height="14.001" viewBox="0 0 14 14.001">
  <path id="home" d="M14.123,6.09h0L8.411.378a1.289,1.289,0,0,0-1.823,0L.88,6.086l-.006.006a1.288,1.288,0,0,0,.858,2.2l.04,0H2v4.2A1.51,1.51,0,0,0,3.507,14H5.742a.41.41,0,0,0,.41-.41V10.3a.689.689,0,0,1,.688-.688H8.159a.689.689,0,0,1,.688.688v3.3a.41.41,0,0,0,.41.41h2.235A1.51,1.51,0,0,0,13,12.493V8.29h.211a1.289,1.289,0,0,0,.912-2.2Zm-.581,1.242a.466.466,0,0,1-.331.137H12.59a.41.41,0,0,0-.41.41v4.613a.689.689,0,0,1-.688.688H9.667V10.3A1.51,1.51,0,0,0,8.159,8.787H6.841A1.51,1.51,0,0,0,5.332,10.3v2.885H3.507a.689.689,0,0,1-.688-.688V7.88a.41.41,0,0,0-.41-.41h-.63a.468.468,0,0,1-.323-.8h0L7.168.958a.468.468,0,0,1,.663,0l5.71,5.71,0,0A.47.47,0,0,1,13.543,7.332Zm0,0" transform="translate(-0.499)" fill="#fff"/>
</svg>
