<?xml version="1.0" ?><svg viewBox="0 0 32 32" xmlns="http://www.w3.org/2000/svg"><title/><g data-name="31-User-Chart" id="_31-User-Chart"><path d="M2,29c0-.78,1.92-1.7,3.24-2l.11,0,8-3A1,1,0,0,0,14,23V20.31a1,1,0,0,0-.57-.9A6,6,0,0,1,10,14a1,1,0,0,0-1-1V11a1,1,0,0,0,1-1V8A6,6,0,0,1,22,8v2a1,1,0,0,0,1,1v2h2V11a2,2,0,0,0-1-1.73V8A8,8,0,0,0,8,8V9.27A2,2,0,0,0,7,11v2a2,2,0,0,0,1,1.75,8.07,8.07,0,0,0,4,6.16v1.39L4.7,25c-.91.23-4.7,1.37-4.7,4v2a1,1,0,0,0,1,1H15V30H2Z"/><rect height="2" width="2" x="16" y="21"/><path d="M22,16v5H20v2h2v5a1,1,0,0,0,1,1h4V27H24V23h3V21H24V17h3V15H23A1,1,0,0,0,22,16Z"/><rect height="2" width="2" x="29" y="15"/><rect height="2" width="2" x="29" y="21"/><rect height="2" width="2" x="29" y="27"/></g></svg>