<svg xmlns="http://www.w3.org/2000/svg" width="18" height="18" viewBox="0 0 18 18">
  <g id="night-mode" transform="translate(0 0)">
    <path id="Path_42" data-name="Path 42" d="M333.633,5.3a.527.527,0,0,0,.527-.527,1.581,1.581,0,0,1,1.58-1.58.527.527,0,1,0,0-1.053,1.619,1.619,0,0,1-1.58-1.615.527.527,0,0,0-1.053,0,1.619,1.619,0,0,1-1.58,1.615.527.527,0,0,0,0,1.053,1.581,1.581,0,0,1,1.58,1.58A.527.527,0,0,0,333.633,5.3ZM333.1,2.664a2.711,2.711,0,0,0,.535-.543,2.711,2.711,0,0,0,.535.543,2.656,2.656,0,0,0-.535.534A2.655,2.655,0,0,0,333.1,2.664Z" transform="translate(-319.354 0)" fill="#157af6"/>
    <path id="Path_43" data-name="Path 43" d="M185.212,91.528a.527.527,0,0,0-1.053,0,2.636,2.636,0,0,1-2.633,2.633.527.527,0,0,0,0,1.053,2.636,2.636,0,0,1,2.633,2.633.527.527,0,0,0,1.053,0,2.636,2.636,0,0,1,2.633-2.633.527.527,0,1,0,0-1.053A2.636,2.636,0,0,1,185.212,91.528Zm-.527,4.422a3.714,3.714,0,0,0-1.263-1.263,3.714,3.714,0,0,0,1.263-1.263,3.714,3.714,0,0,0,1.263,1.263A3.714,3.714,0,0,0,184.686,95.949Z" transform="translate(-174.63 -87.798)" fill="#157af6"/>
    <path id="Path_44" data-name="Path 44" d="M9,18a9.115,9.115,0,0,0,9-7.78.527.527,0,0,0-.962-.363,6.521,6.521,0,0,1-5.4,2.834A6.335,6.335,0,0,1,5.309,6.364,6.521,6.521,0,0,1,8.143.967.527.527,0,0,0,7.78.005,9.115,9.115,0,0,0,0,9a9.019,9.019,0,0,0,9,9ZM5.914,1.605a7.693,7.693,0,0,0-1.66,4.758,7.391,7.391,0,0,0,7.383,7.383,7.693,7.693,0,0,0,4.758-1.66A8.059,8.059,0,0,1,9,16.946,7.954,7.954,0,0,1,1.055,9a8.059,8.059,0,0,1,4.86-7.4Z" transform="translate(0 0)" fill="#157af6"/>
  </g>
</svg>
