<svg id="notification" xmlns="http://www.w3.org/2000/svg" width="18" height="18.783" viewBox="0 0 18 18.783">
  <path id="Path_5" data-name="Path 5" d="M133.9,344.284a2.952,2.952,0,1,1-2.952-2.952A2.952,2.952,0,0,1,133.9,344.284Zm0,0" transform="translate(-123.162 -328.454)" fill="#adb4b9"/>
  <path id="Path_6" data-name="Path 6" d="M13.424,49.99a5.3,5.3,0,0,1-4.742-5.108,4.85,4.85,0,0,1,.468-2.074,5.865,5.865,0,0,0-1.257-.14,5.36,5.36,0,0,0-5.525,5.166v2.058A4.824,4.824,0,0,1,.483,53.68,1.255,1.255,0,0,0,0,54.661a1.34,1.34,0,0,0,1.381,1.292H14.4a1.34,1.34,0,0,0,1.381-1.292,1.262,1.262,0,0,0-.491-.987A4.823,4.823,0,0,1,13.424,49.99Zm0,0" transform="translate(0 -41.192)" fill="#adb4b9"/>
  <path id="Path_7" data-name="Path 7" d="M284.712,3.69A3.69,3.69,0,1,1,281.022,0,3.69,3.69,0,0,1,284.712,3.69Zm0,0" transform="translate(-266.712)" fill="#f20b0b"/>
</svg>
