<?xml version="1.0" ?><!DOCTYPE svg  PUBLIC '-//W3C//DTD SVG 1.0//EN'  'http://www.w3.org/TR/2001/REC-SVG-20010904/DTD/svg10.dtd'><svg enable-background="new 0 0 32 32" height="32px" id="Layer_1" version="1.0" viewBox="0 0 32 32" width="32px" xml:space="preserve" xmlns="http://www.w3.org/2000/svg" xmlns:xlink="http://www.w3.org/1999/xlink"><path d="M28.309,0H3.691C1.656,0,0,1.656,0,3.692v24.615C0,30.344,1.656,32,3.691,32h24.617C30.344,32,32,30.344,32,28.308V3.692  C32,1.656,30.344,0,28.309,0z M29.539,28.308c0,0.679-0.553,1.23-1.23,1.23H3.691c-0.678,0-1.229-0.552-1.229-1.23V3.692  c0-0.678,0.551-1.23,1.229-1.23h24.617c0.678,0,1.23,0.553,1.23,1.23V28.308z M21.795,15.13c0.48,0.48,0.48,1.26,0,1.74  l-8.617,8.616c-0.48,0.48-1.258,0.48-1.74,0c-0.238-0.241-0.359-0.556-0.359-0.871c0-0.314,0.121-0.63,0.359-0.87L19.184,16  l-7.746-7.745c-0.48-0.48-0.48-1.26,0-1.74c0.482-0.48,1.26-0.48,1.74,0L21.795,15.13z"/></svg>