<svg xmlns="http://www.w3.org/2000/svg" width="15.236" height="15.236" viewBox="0 0 15.236 15.236">
  <path id="search" d="M15.989,13.878l-3.756-3.771a6.006,6.006,0,0,0,1.495-3.955A6.272,6.272,0,0,0,7.356,0,6.272,6.272,0,0,0,.984,6.152,6.272,6.272,0,0,0,7.356,12.3a6.46,6.46,0,0,0,3.65-1.113l3.785,3.8a.852.852,0,0,0,1.175.022A.784.784,0,0,0,15.989,13.878ZM7.356,1.6a4.636,4.636,0,0,1,4.71,4.547A4.636,4.636,0,0,1,7.356,10.7a4.636,4.636,0,0,1-4.71-4.547A4.636,4.636,0,0,1,7.356,1.6Z" transform="translate(-0.984)" fill="#adb4b9"/>
</svg>
