<svg id="settings" xmlns="http://www.w3.org/2000/svg" width="18" height="18.485" viewBox="0 0 18 18.485">
  <g id="Group_1" data-name="Group 1" transform="translate(0)">
    <path id="Path_8" data-name="Path 8" d="M24.4,11.268,22.7,9.939a6.689,6.689,0,0,0,.04-.7,6.488,6.488,0,0,0-.04-.7l1.7-1.329a.833.833,0,0,0,.2-1.061L22.834,3.1a.819.819,0,0,0-1.022-.367l-2,.8a6.873,6.873,0,0,0-1.2-.7L18.3.709A.818.818,0,0,0,17.482,0H13.94a.816.816,0,0,0-.815.7l-.306,2.134a7.086,7.086,0,0,0-1.2.7l-2.01-.807a.835.835,0,0,0-1.014.361L6.824,6.15a.828.828,0,0,0,.2,1.067l1.7,1.329a6.094,6.094,0,0,0,0,1.395l-1.7,1.329a.833.833,0,0,0-.2,1.061l1.767,3.057a.817.817,0,0,0,1.022.367l2-.8a6.934,6.934,0,0,0,1.2.7l.3,2.126a.817.817,0,0,0,.816.71h3.543a.817.817,0,0,0,.816-.7l.306-2.133a7.119,7.119,0,0,0,1.2-.7l2.01.807a.828.828,0,0,0,.3.057.813.813,0,0,0,.712-.417l1.775-3.073A.831.831,0,0,0,24.4,11.268Zm-8.688,1.055a3.081,3.081,0,1,1,3.081-3.081A3.084,3.084,0,0,1,15.711,12.323Z" transform="translate(-6.71)" fill="#adb4b9"/>
  </g>
</svg>
