<svg xmlns="http://www.w3.org/2000/svg" width="18" height="18" viewBox="0 0 18 18">
  <g id="sunny-day" transform="translate(0 -0.003)">
    <path id="Path_33" data-name="Path 33" d="M103.012,183.46a.631.631,0,0,0-.631.631v1.794a.631.631,0,1,0,1.262,0v-1.794A.631.631,0,0,0,103.012,183.46Z" transform="translate(-94.013 -168.513)" fill="#fff"/>
    <path id="Path_34" data-name="Path 34" d="M103.012,3.059a.631.631,0,0,0,.631-.631V.634a.631.631,0,0,0-1.262,0V2.428A.631.631,0,0,0,103.012,3.059Z" transform="translate(-94.013 0)" fill="#fff"/>
    <path id="Path_35" data-name="Path 35" d="M31.441,159.9l-1.269,1.268a.631.631,0,0,0,.892.892l1.269-1.268a.631.631,0,0,0-.892-.892Z" transform="translate(-27.464 -146.765)" fill="#fff"/>
    <path id="Path_36" data-name="Path 36" d="M160.339,32.52a.629.629,0,0,0,.446-.185l1.269-1.268a.631.631,0,1,0-.892-.892l-1.269,1.268a.631.631,0,0,0,.446,1.077Z" transform="translate(-146.763 -27.464)" fill="#fff"/>
    <path id="Path_37" data-name="Path 37" d="M3.056,103.026a.631.631,0,0,0-.631-.631H.631a.631.631,0,1,0,0,1.262H2.425A.631.631,0,0,0,3.056,103.026Z" transform="translate(0 -94.023)" fill="#fff"/>
    <path id="Path_38" data-name="Path 38" d="M185.878,102.4h-1.795a.631.631,0,1,0,0,1.262h1.795a.631.631,0,1,0,0-1.262Z" transform="translate(-168.509 -94.023)" fill="#fff"/>
    <path id="Path_39" data-name="Path 39" d="M31.447,32.337a.631.631,0,1,0,.892-.892l-1.268-1.268a.631.631,0,0,0-.892.892Z" transform="translate(-27.471 -27.466)" fill="#fff"/>
    <path id="Path_40" data-name="Path 40" d="M160.793,159.9a.631.631,0,0,0-.892.892l1.268,1.268a.631.631,0,0,0,.892-.892Z" transform="translate(-146.769 -146.764)" fill="#fff"/>
    <path id="Path_41" data-name="Path 41" d="M56.182,51.518a4.666,4.666,0,1,0,4.666,4.666A4.671,4.671,0,0,0,56.182,51.518Zm0,8.134a3.467,3.467,0,1,1,3.467-3.467A3.471,3.471,0,0,1,56.182,59.652Z" transform="translate(-47.182 -47.181)" fill="#fff"/>
  </g>
</svg>
